REM DIRINDEX 1\2,1\4,1\5,1\6,1\7,1\3\8,1\3\9,1\3\10
REM DIRNAME cjc113,folder01,folder02,folder03,folder04,folder05,folder06,folder07,folder08,folder09
TITLE ""
FILE "DB4500_5th_4B_43.mp3" MP3
  TRACK 01 AUDIO
    TITLE "0:"
    INDEX 01 00:00:00
  TRACK 02 AUDIO
    TITLE "8:cjc113_3377"
    INDEX 01 00:00:01
  TRACK 03 AUDIO
    TITLE "0:"
    INDEX 01 00:01:21
  TRACK 04 AUDIO
    TITLE "9:cjc113_3378"
    INDEX 01 00:01:44
  TRACK 05 AUDIO
    TITLE "0:"
    INDEX 01 00:02:57
  TRACK 06 AUDIO
    TITLE "10:cjc113_3379"
    INDEX 01 00:03:04
  TRACK 07 AUDIO
    TITLE "0:"
    INDEX 01 00:05:36
  TRACK 08 AUDIO
    TITLE "8:cjc113_3380"
    INDEX 01 00:06:08
  TRACK 09 AUDIO
    TITLE "0:"
    INDEX 01 00:07:43
  TRACK 10 AUDIO
    TITLE "9:cjc113_3381"
    INDEX 01 00:07:66
  TRACK 11 AUDIO
    TITLE "0:"
    INDEX 01 00:08:62
  TRACK 12 AUDIO
    TITLE "10:cjc113_3382"
    INDEX 01 00:09:08
  TRACK 13 AUDIO
    TITLE "0:"
    INDEX 01 00:12:46
  TRACK 14 AUDIO
    TITLE "8:cjc113_3383"
    INDEX 01 00:13:18
  TRACK 15 AUDIO
    TITLE "0:"
    INDEX 01 00:14:31
  TRACK 16 AUDIO
    TITLE "9:cjc113_3384"
    INDEX 01 00:14:54
  TRACK 17 AUDIO
    TITLE "0:"
    INDEX 01 00:15:68
  TRACK 18 AUDIO
    TITLE "10:cjc113_3385"
    INDEX 01 00:16:18
  TRACK 19 AUDIO
    TITLE "0:"
    INDEX 01 00:19:20
  TRACK 20 AUDIO
    TITLE "8:cjc113_3386"
    INDEX 01 00:19:65
  TRACK 21 AUDIO
    TITLE "0:"
    INDEX 01 00:21:00
  TRACK 22 AUDIO
    TITLE "9:cjc113_3387"
    INDEX 01 00:21:21
  TRACK 23 AUDIO
    TITLE "0:"
    INDEX 01 00:22:34
  TRACK 24 AUDIO
    TITLE "10:cjc113_3388"
    INDEX 01 00:22:54
  TRACK 25 AUDIO
    TITLE "0:"
    INDEX 01 00:27:24
  TRACK 26 AUDIO
    TITLE "8:cjc113_3389"
    INDEX 01 00:27:69
  TRACK 27 AUDIO
    TITLE "0:"
    INDEX 01 00:29:07
  TRACK 28 AUDIO
    TITLE "9:cjc113_3390"
    INDEX 01 00:29:29
  TRACK 29 AUDIO
    TITLE "0:"
    INDEX 01 00:30:44
  TRACK 30 AUDIO
    TITLE "10:cjc113_3391"
    INDEX 01 00:30:65
  TRACK 31 AUDIO
    TITLE "0:"
    INDEX 01 00:34:02
  TRACK 32 AUDIO
    TITLE "8:cjc113_3392"
    INDEX 01 00:34:49
  TRACK 33 AUDIO
    TITLE "0:"
    INDEX 01 00:37:10
  TRACK 34 AUDIO
    TITLE "9:cjc113_3393"
    INDEX 01 00:37:34
  TRACK 35 AUDIO
    TITLE "0:"
    INDEX 01 00:38:39
  TRACK 36 AUDIO
    TITLE "10:cjc113_3394"
    INDEX 01 00:38:59
  TRACK 37 AUDIO
    TITLE "0:"
    INDEX 01 00:41:40
  TRACK 38 AUDIO
    TITLE "8:cjc113_3395"
    INDEX 01 00:42:14
  TRACK 39 AUDIO
    TITLE "0:"
    INDEX 01 00:43:40
  TRACK 40 AUDIO
    TITLE "9:cjc113_3396"
    INDEX 01 00:43:62
  TRACK 41 AUDIO
    TITLE "0:"
    INDEX 01 00:44:73
  TRACK 42 AUDIO
    TITLE "10:cjc113_3397"
    INDEX 01 00:45:22
  TRACK 43 AUDIO
    TITLE "0:"
    INDEX 01 00:50:13
  TRACK 44 AUDIO
    TITLE "8:cjc113_3398"
    INDEX 01 00:50:62
  TRACK 45 AUDIO
    TITLE "0:"
    INDEX 01 00:51:71
  TRACK 46 AUDIO
    TITLE "9:cjc113_3399"
    INDEX 01 00:52:18
  TRACK 47 AUDIO
    TITLE "0:"
    INDEX 01 00:53:31
  TRACK 48 AUDIO
    TITLE "10:cjc113_3400"
    INDEX 01 00:53:57
  TRACK 49 AUDIO
    TITLE "0:"
    INDEX 01 00:58:22
  TRACK 50 AUDIO
    TITLE "8:cjc113_3401"
    INDEX 01 00:58:69
  TRACK 51 AUDIO
    TITLE "0:"
    INDEX 01 01:00:13
  TRACK 52 AUDIO
    TITLE "9:cjc113_3402"
    INDEX 01 01:00:31
  TRACK 53 AUDIO
    TITLE "0:"
    INDEX 01 01:01:48
  TRACK 54 AUDIO
    TITLE "10:cjc113_3403"
    INDEX 01 01:01:68
  TRACK 55 AUDIO
    TITLE "0:"
    INDEX 01 01:05:40
  TRACK 56 AUDIO
    TITLE "8:cjc113_3404"
    INDEX 01 01:06:06
  TRACK 57 AUDIO
    TITLE "0:"
    INDEX 01 01:09:09
  TRACK 58 AUDIO
    TITLE "9:cjc113_3405"
    INDEX 01 01:09:34
  TRACK 59 AUDIO
    TITLE "0:"
    INDEX 01 01:10:63
  TRACK 60 AUDIO
    TITLE "10:cjc113_3406"
    INDEX 01 01:11:05
  TRACK 61 AUDIO
    TITLE "0:"
    INDEX 01 01:14:57
  TRACK 62 AUDIO
    TITLE "8:cjc113_3407"
    INDEX 01 01:15:31
  TRACK 63 AUDIO
    TITLE "0:"
    INDEX 01 01:16:50
  TRACK 64 AUDIO
    TITLE "9:cjc113_3408"
    INDEX 01 01:16:71
  TRACK 65 AUDIO
    TITLE "0:"
    INDEX 01 01:18:39
  TRACK 66 AUDIO
    TITLE "10:cjc113_3409"
    INDEX 01 01:18:58
  TRACK 67 AUDIO
    TITLE "0:"
    INDEX 01 01:21:45
  TRACK 68 AUDIO
    TITLE "8:cjc113_3410"
    INDEX 01 01:22:19
  TRACK 69 AUDIO
    TITLE "0:"
    INDEX 01 01:23:38
  TRACK 70 AUDIO
    TITLE "9:cjc113_3411"
    INDEX 01 01:23:62
  TRACK 71 AUDIO
    TITLE "0:"
    INDEX 01 01:25:33
  TRACK 72 AUDIO
    TITLE "10:cjc113_3412"
    INDEX 01 01:25:57
  TRACK 73 AUDIO
    TITLE "0:"
    INDEX 01 01:28:63
  TRACK 74 AUDIO
    TITLE "8:cjc113_3413"
    INDEX 01 01:29:37
  TRACK 75 AUDIO
    TITLE "0:"
    INDEX 01 01:30:60
  TRACK 76 AUDIO
    TITLE "9:cjc113_3414"
    INDEX 01 01:31:08
  TRACK 77 AUDIO
    TITLE "0:"
    INDEX 01 01:33:60
  TRACK 78 AUDIO
    TITLE "10:cjc113_3415"
    INDEX 01 01:34:06
  TRACK 79 AUDIO
    TITLE "0:"
    INDEX 01 01:38:08
